<?xml version="1.0" encoding="UTF-8" standalone="no"?>
<!-- Created with Inkscape (http://www.inkscape.org/) -->

<svg
   width="100mm"
   height="100mm"
   viewBox="0 0 100 100"
   version="1.1"
   id="svg1"
   xml:space="preserve"
   inkscape:version="1.4.4 (dcaf3e7, 2026-05-05)"
   sodipodi:docname="logo.svg"
   xmlns:inkscape="http://www.inkscape.org/namespaces/inkscape"
   xmlns:sodipodi="http://sodipodi.sourceforge.net/DTD/sodipodi-0.dtd"
   xmlns="http://www.w3.org/2000/svg"
   xmlns:svg="http://www.w3.org/2000/svg"><sodipodi:namedview
     id="namedview1"
     pagecolor="#ffffff"
     bordercolor="#999999"
     borderopacity="1"
     inkscape:showpageshadow="2"
     inkscape:pageopacity="0"
     inkscape:pagecheckerboard="0"
     inkscape:deskcolor="#d1d1d1"
     inkscape:document-units="mm"
     showguides="true"
     showgrid="true"
     inkscape:export-bgcolor="#ffffff00"
     inkscape:zoom="1.1"
     inkscape:cx="94.545455"
     inkscape:cy="302.27273"
     inkscape:window-width="2560"
     inkscape:window-height="1369"
     inkscape:window-x="-8"
     inkscape:window-y="-8"
     inkscape:window-maximized="1"
     inkscape:current-layer="layer7"><inkscape:grid
       id="grid3"
       units="mm"
       originx="0"
       originy="0"
       spacingx="0.99999999"
       spacingy="0.99999999"
       empcolor="#0099e5"
       empopacity="0.30196078"
       color="#0099e5"
       opacity="0.14901961"
       empspacing="5"
       enabled="true"
       visible="true" /></sodipodi:namedview><defs
     id="defs1" /><g
     inkscape:groupmode="layer"
     id="layer3"
     inkscape:label="Palm"
     style="display:inline"><path
       id="path1"
       style="display:inline;fill:#393c41;fill-opacity:1;stroke:#393c41;stroke-width:2;stroke-linecap:square;stroke-dasharray:none;stroke-opacity:1"
       inkscape:label="Palm"
       d="m 30.015155,79.397573 c -3.76691,-6.241935 -9.949562,-8.38713 -9.949562,-32.412987 L 79.571814,47 c 0,24.025857 -6.182,26.171052 -9.949,32.412987 -6.207,10.284587 -7.383924,19.747829 -7.383924,19.747829 l -24.473599,-0.01541 c 0,0 -1.543549,-9.463246 -7.750136,-19.747833 z"
       sodipodi:nodetypes="scccccs" /></g><g
     inkscape:groupmode="layer"
     id="layer5"
     inkscape:label="FingerLow"
     style="display:inline"><path
       style="fill:#242424;fill-opacity:0;stroke:#393c41;stroke-width:11;stroke-linecap:square;stroke-dasharray:none;stroke-opacity:1"
       d="M 76.101906,42.586317 C 82.972496,4.7206287 72.791291,23.183628 72.791291,23.183628"
       id="path21"
       sodipodi:nodetypes="cc"
       inkscape:label="Right" /><path
       style="opacity:1;fill-opacity:0;stroke:#000021;stroke-width:1;stroke-linecap:round;stroke-dasharray:none;stroke-opacity:1"
       d="m 77.847063,27.245186 c -2.399651,4.146388 -2.069987,4.738576 -2.069987,4.738576"
       id="path22"
       sodipodi:nodetypes="cc"
       inkscape:label="SepRight" /><path
       style="fill:#242424;fill-opacity:0;stroke:#393c41;stroke-width:11;stroke-linecap:square;stroke-dasharray:none;stroke-opacity:1"
       d="M 23.621906,42.586317 C 16.751316,4.7206287 26.932521,23.183628 26.932521,23.183628"
       id="path7"
       sodipodi:nodetypes="cc"
       inkscape:label="Left" /><path
       style="opacity:1;fill-opacity:0;stroke:#000021;stroke-width:1;stroke-linecap:round;stroke-dasharray:none;stroke-opacity:1"
       d="m 21.980102,27.245186 c 2.399651,4.146388 2.069987,4.738576 2.069987,4.738576"
       id="path8"
       sodipodi:nodetypes="cc"
       inkscape:label="SepLeft" /></g><g
     inkscape:groupmode="layer"
     id="layer2"
     inkscape:label="Planet"
     style="display:inline"><circle
       style="fill:#702335;fill-opacity:1;stroke:#000000;stroke-width:2;stroke-dasharray:none;stroke-opacity:1"
       id="path2"
       cx="49.903572"
       cy="45.875839"
       r="29.875837"
       inkscape:label="Globe" /></g><g
     inkscape:groupmode="layer"
     id="layer7"
     inkscape:label="Paths"
     style="display:inline"><path
       style="fill:#000000;fill-opacity:0;stroke:#ffffff;stroke-width:4;stroke-linecap:round;stroke-dasharray:8,8;stroke-dashoffset:2.8;stroke-opacity:1"
       d="M 36.333949,68.711638 C 39.369184,44.972824 47.428559,54.380066 51.164765,60.538639 57.963357,71.745095 66.804073,55.970998 62.79376,46.193893 54.682988,26.419911 66.838731,27.800917 68.467848,27.321765"
       id="path4"
       sodipodi:nodetypes="cssc" /><path
       style="fill:#000000;fill-opacity:0;stroke:#ffffff;stroke-width:4;stroke-linecap:round;stroke-dasharray:8.00001, 8.00001;stroke-dashoffset:0;stroke-opacity:1"
       d="M 23.740341,48.220313 C 43.517945,42.8625 49.603362,19.513021 49.603362,19.513021"
       id="path5"
       sodipodi:nodetypes="cc" /></g><g
     inkscape:groupmode="layer"
     id="layer4"
     inkscape:label="FingerHigh"
     style="display:inline"><path
       style="display:inline;opacity:1;fill:#393c41;fill-opacity:1;stroke:#393c41;stroke-width:0.001001;stroke-linecap:round;stroke-dasharray:none;stroke-opacity:1"
       d="m 44.010251,12.069053 c 0,0 -0.316571,-6.3148587 1.423456,-8.235868 0.698194,-0.7708074 3.58565,-1.0989537 4.597509,-1.0960237 0.990479,-0.00197 3.612594,0.2778522 4.317794,1.0079218 1.795586,1.8589103 1.664279,8.2842709 1.664279,8.2842709 z"
       id="path26"
       sodipodi:nodetypes="cscscc"
       inkscape:label="MiddleTop" /><path
       style="fill:#000000;fill-opacity:1;stroke:#393c41;stroke-width:12;stroke-linecap:round;stroke-dasharray:none;stroke-opacity:1"
       d="m 49.995754,12.174866 0.0079,18.39425"
       id="path16"
       inkscape:label="Middle"
       sodipodi:nodetypes="cc" /><path
       style="opacity:1;fill-opacity:0;stroke:#393c41;stroke-width:11;stroke-linecap:round;stroke-dasharray:none;stroke-opacity:1"
       d="m 73.266754,22.731273 c -3.461139,6.501332 -4.794147,12.23092 -4.794147,12.23092"
       id="path23"
       sodipodi:nodetypes="cc"
       inkscape:label="Right" /><path
       style="opacity:1;fill-opacity:0;stroke:#393c41;stroke-width:11;stroke-linecap:round;stroke-dasharray:none;stroke-opacity:1"
       d="m 26.663764,22.937979 c 3.461139,6.501332 4.794147,12.23092 4.794147,12.23092"
       id="path9"
       sodipodi:nodetypes="cc"
       inkscape:label="Left" /><path
       style="fill:#393c41;fill-opacity:1;stroke:#393c41;stroke-width:1;stroke-linecap:round;stroke-dasharray:none;stroke-opacity:1"
       d="m 23.289991,64.592253 c 9.33583,-1.17836 21.700649,3.677046 26.731206,9.153305 5.628065,6.126706 -2.420264,8.75347 -11.676882,4.521208 C 29.087697,74.034504 18.651604,65.177706 23.289991,64.592253 Z"
       id="path6"
       sodipodi:nodetypes="ssss"
       inkscape:label="RightOverhang" /><path
       style="fill:#393c41;fill-opacity:1;stroke:#393c41;stroke-width:1;stroke-linecap:round;stroke-dasharray:none;stroke-opacity:1"
       d="m 76.676999,64.592253 c -9.33583,-1.17836 -21.518087,3.540702 -26.548644,9.016961 -5.628065,6.126706 2.237702,8.889814 11.49432,4.657552 9.256618,-4.232262 19.692711,-13.08906 15.054324,-13.674513 z"
       id="path10"
       sodipodi:nodetypes="ssss"
       inkscape:label="RightOverhang" /></g><g
     inkscape:groupmode="layer"
     id="layer6"
     inkscape:label="Talon"
     style="display:inline"><path
       style="opacity:1;fill:#000000;fill-opacity:1;stroke:#000000;stroke-width:1;stroke-linecap:round;stroke-dasharray:none;stroke-opacity:1"
       d="m 50.001782,28.169074 c 3.924019,-0.0092 4.702556,1.925776 4.284211,5.096675 -0.305793,2.317799 -3.463915,9.684812 -4.381144,11.816854 0,0 -3.934889,-9.672769 -4.205968,-11.929708 -0.456379,-3.393389 0.360037,-4.974567 4.302901,-4.983821 z"
       id="path25"
       sodipodi:nodetypes="sscss"
       inkscape:label="Middle" /><path
       style="fill:#000000;fill-opacity:1;stroke:#000000;stroke-width:1;stroke-linecap:round;stroke-dasharray:none;stroke-opacity:1"
       d="m 62.376638,38.111718 c -1.168332,4.287097 -0.07758,10.700028 -0.07758,10.700028 0,0 1.679114,-2.109364 3.472655,-4.512328 2.325407,-3.115553 4.572084,-5.62591 4.472439,-8.683785 -0.07723,-2.369903 -4.913158,-3.82474 -5.88948,-2.588127 -0.976321,1.236613 -1.264354,2.465421 -1.978034,5.084212 z"
       id="path11"
       sodipodi:nodetypes="scsscs" /><path
       style="fill:#000000;fill-opacity:1;stroke:#000000;stroke-width:1;stroke-linecap:round;stroke-dasharray:none;stroke-opacity:1"
       d="m 37.535748,38.111718 c 1.168332,4.287097 0.07758,10.700028 0.07758,10.700028 0,0 -1.679114,-2.109364 -3.472655,-4.512328 -2.325407,-3.115553 -4.572084,-5.62591 -4.472439,-8.683785 0.07723,-2.369903 4.913158,-3.82474 5.88948,-2.588127 0.976321,1.236613 1.264354,2.465421 1.978034,5.084212 z"
       id="path12"
       sodipodi:nodetypes="scsscs" /></g></svg>
